<?xml version="1.0" encoding="iso-8859-1"?>
<!-- Generator: Adobe Illustrator 19.0.0, SVG Export Plug-In . SVG Version: 6.00 Build 0)  -->
<svg version="1.1" id="Capa_1" xmlns="http://www.w3.org/2000/svg" xmlns:xlink="http://www.w3.org/1999/xlink" x="0px" y="0px"
	 viewBox="0 0 511.999 511.999" style="enable-background:new 0 0 511.999 511.999;" xml:space="preserve">
<g>
	<g>
		<path style="fill:#FFE100;" d="M402.832,151.1l-80.333-80.333c-1.604-1.604-3.763-2.5-6.033-2.5H89.599
			c-4.719,0-8.533,3.823-8.533,8.533v213.538c18.125-5.41,42.001-8.738,68.267-8.738c56.55,0,102.4,15.283,102.4,34.133v25.6v25.6
			v51.2v51.2v8.533h145.067c4.719,0,8.533-3.823,8.533-8.533V157.133C405.332,154.871,404.428,152.695,402.832,151.1"/>
		<path style="fill:#FFE100;" d="M462.565,91.366l-80.333-80.333c-1.604-1.604-3.763-2.5-6.033-2.5H149.332
			c-4.719,0-8.533,3.823-8.533,8.533V51.2v17.067h175.667c2.27,0,4.429,0.896,6.033,2.5l80.333,80.333
			c1.604,1.596,2.5,3.772,2.5,6.033v261.001h17.067h34.133c4.719,0,8.533-3.823,8.533-8.533V97.399
			C465.065,95.138,464.161,92.962,462.565,91.366"/>
	</g>
	<path style="fill:#FFA800;" d="M462.565,91.366l-80.333-80.333c-1.604-1.604-3.763-2.5-6.033-2.5h-2.5
		c2.27,0,4.429,0.896,6.033,2.5l57.233,80.333c1.596,1.596,2.5,3.772,2.5,6.033V409.6c0,4.71-3.814,8.533-8.533,8.533h25.6
		c4.719,0,8.533-3.823,8.533-8.533V97.399C465.065,95.138,464.161,92.962,462.565,91.366"/>
	<g>
		<polygon style="fill:#FDCC00;" points="405.332,153.6 319.999,153.6 319.999,68.267 		"/>
		<polygon style="fill:#FDCC00;" points="465.065,93.867 379.732,93.867 379.732,8.533 		"/>
	</g>
	<g>
		<path style="fill:#00DA6C;" d="M251.732,315.733c0,18.85-45.85,34.133-102.4,34.133s-102.4-15.283-102.4-34.133
			c0-18.85,45.85-34.133,102.4-34.133S251.732,296.883,251.732,315.733"/>
		<path style="fill:#00DA6C;" d="M149.332,452.267c-56.55,0-102.4-15.283-102.4-34.133v51.2c0,18.85,45.85,34.133,102.4,34.133
			s102.4-15.283,102.4-34.133v-51.2C251.732,436.983,205.883,452.267,149.332,452.267"/>
		<path style="fill:#00DA6C;" d="M149.332,401.067c-56.55,0-102.4-15.283-102.4-34.133v51.2c0,18.85,45.85,34.133,102.4,34.133
			s102.4-15.283,102.4-34.133v-51.2C251.732,385.783,205.883,401.067,149.332,401.067"/>
		<path style="fill:#00DA6C;" d="M149.332,349.867c-56.55,0-102.4-15.283-102.4-34.133v51.2c0,18.85,45.85,34.133,102.4,34.133
			s102.4-15.283,102.4-34.133v-51.2C251.732,334.583,205.883,349.867,149.332,349.867"/>
	</g>
	<g>
		<path style="fill:#FFFFFF;" d="M106.665,76.8c0-4.71,3.814-8.533,8.533-8.533h-25.6c-4.719,0-8.533,3.823-8.533,8.533v213.538
			c7.595-2.261,16.23-4.139,25.6-5.581V76.8z"/>
		<path style="fill:#FFFFFF;" d="M166.399,17.067c0-4.71,3.814-8.533,8.533-8.533h-25.6c-4.719,0-8.533,3.823-8.533,8.533V51.2
			v17.067h25.6V51.2V17.067z"/>
		<path style="fill:#FFFFFF;" d="M72.532,315.733c0-17.408,39.1-31.735,89.6-33.835c-4.198-0.179-8.457-0.299-12.8-0.299
			c-56.55,0-102.4,15.283-102.4,34.133c0,18.85,45.85,34.133,102.4,34.133c4.343,0,8.602-0.119,12.8-0.299
			C111.632,347.469,72.532,333.141,72.532,315.733"/>
		<path style="fill:#FFFFFF;" d="M72.532,469.333v-28.672c-15.881-6.016-25.6-13.884-25.6-22.528v51.2
			c0,18.85,45.85,34.133,102.4,34.133c4.343,0,8.602-0.119,12.8-0.299C111.632,501.069,72.532,486.741,72.532,469.333"/>
		<path style="fill:#FFFFFF;" d="M72.532,418.133v-28.672c-15.881-6.016-25.6-13.884-25.6-22.528v51.2
			c0,18.85,45.85,34.133,102.4,34.133c4.343,0,8.602-0.119,12.8-0.299C111.632,449.869,72.532,435.541,72.532,418.133"/>
		<path style="fill:#FFFFFF;" d="M72.532,366.933v-28.672c-15.881-6.016-25.6-13.884-25.6-22.528v51.2
			c0,18.85,45.85,34.133,102.4,34.133c4.343,0,8.602-0.119,12.8-0.299C111.632,398.669,72.532,384.341,72.532,366.933"/>
	</g>
	<g>
		<path d="M328.532,145.067h56.201l-56.201-56.201V145.067z M405.332,162.133h-85.333c-4.719,0-8.533-3.823-8.533-8.533V68.267
			c0-3.447,2.074-6.562,5.265-7.885c3.2-1.314,6.861-0.589,9.301,1.852l85.333,85.333c2.441,2.441,3.174,6.11,1.852,9.301
			C411.903,160.051,408.78,162.133,405.332,162.133L405.332,162.133z"/>
		<path d="M149.332,290.133c-60.732,0-93.867,16.913-93.867,25.6c0,8.687,33.135,25.6,93.867,25.6s93.867-16.913,93.867-25.6
			C243.199,307.046,210.064,290.133,149.332,290.133 M149.332,358.4c-55.125,0-110.933-14.652-110.933-42.667
			c0-28.015,55.808-42.667,110.933-42.667s110.933,14.652,110.933,42.667C260.265,343.748,204.457,358.4,149.332,358.4"/>
		<path d="M55.465,441.983v27.349c0,8.687,33.135,25.6,93.867,25.6s93.867-16.913,93.867-25.6v-27.349
			C201.752,466.815,96.912,466.815,55.465,441.983 M149.332,511.999c-55.125,0-110.933-14.652-110.933-42.667v-51.2
			c0-4.71,3.814-8.533,8.533-8.533s8.533,3.823,8.533,8.533c0,8.687,33.135,25.6,93.867,25.6s93.867-16.913,93.867-25.6
			c0-4.71,3.814-8.533,8.533-8.533s8.533,3.823,8.533,8.533v51.2C260.265,497.347,204.457,511.999,149.332,511.999"/>
		<path d="M55.465,390.783v27.349c0,8.687,33.135,25.6,93.867,25.6s93.867-16.913,93.867-25.6v-27.349
			C201.752,415.615,96.912,415.615,55.465,390.783 M149.332,460.799c-55.125,0-110.933-14.652-110.933-42.667v-51.2
			c0-4.71,3.814-8.533,8.533-8.533s8.533,3.823,8.533,8.533c0,8.687,33.135,25.6,93.867,25.6s93.867-16.913,93.867-25.6
			c0-4.71,3.814-8.533,8.533-8.533s8.533,3.823,8.533,8.533v51.2C260.265,446.147,204.457,460.799,149.332,460.799"/>
		<path d="M55.465,339.583v27.349c0,8.687,33.135,25.6,93.867,25.6s93.867-16.913,93.867-25.6v-27.349
			C201.752,364.415,96.912,364.415,55.465,339.583 M149.332,409.599c-55.125,0-110.933-14.652-110.933-42.667v-51.2
			c0-4.71,3.814-8.533,8.533-8.533s8.533,3.823,8.533,8.533c0,8.687,33.135,25.6,93.867,25.6s93.867-16.913,93.867-25.6
			c0-4.71,3.814-8.533,8.533-8.533s8.533,3.823,8.533,8.533v51.2C260.265,394.947,204.457,409.599,149.332,409.599"/>
		<path d="M388.265,85.333h56.201l-56.201-56.201V85.333z M465.065,102.4h-85.333c-4.719,0-8.533-3.823-8.533-8.533V8.533
			c0-3.447,2.074-6.562,5.265-7.885c3.2-1.314,6.861-0.589,9.301,1.852l85.333,85.333c2.441,2.441,3.174,6.11,1.852,9.301
			C471.636,100.318,468.513,102.4,465.065,102.4L465.065,102.4z"/>
		<path d="M396.799,486.4H251.732c-4.719,0-8.533-3.823-8.533-8.533V315.733c0-8.687-33.135-25.6-93.867-25.6
			c-24.354,0-47.735,2.978-65.826,8.38c-2.577,0.794-5.376,0.29-7.543-1.331c-2.159-1.604-3.43-4.147-3.43-6.844v-94.071
			c0-4.71,3.814-8.533,8.533-8.533s8.533,3.823,8.533,8.533v83.021c17.621-4.036,38.391-6.221,59.733-6.221
			c55.125,0,110.933,14.652,110.933,42.667v153.6h136.533V157.133L316.466,76.8H89.599V128c0,4.71-3.814,8.533-8.533,8.533
			s-8.533-3.823-8.533-8.533V76.8c0-9.412,7.654-17.067,17.067-17.067h226.867c4.557,0,8.841,1.775,12.066,5.001l80.333,80.333
			c3.226,3.226,5.001,7.509,5.001,12.066v312.201C413.865,478.746,406.211,486.4,396.799,486.4"/>
		<path d="M89.599,162.133c0,4.71-3.814,8.533-8.533,8.533s-8.533-3.823-8.533-8.533s3.814-8.533,8.533-8.533
			S89.599,157.423,89.599,162.133"/>
		<path d="M413.865,409.6h42.667V97.399l-80.333-80.333H149.332v42.667h167.134c4.557,0,8.841,1.775,12.066,5.001l80.333,80.333
			c3.226,3.226,5.001,7.509,5.001,12.066V409.6z M456.532,426.667h-51.2c-4.719,0-8.533-3.823-8.533-8.533V157.133L316.466,76.8
			H140.799c-4.719,0-8.533-3.823-8.533-8.533v-51.2C132.265,7.654,139.92,0,149.332,0h226.867c4.557,0,8.841,1.775,12.066,5.001
			l80.333,80.333c3.226,3.226,5.001,7.509,5.001,12.066V409.6C473.599,419.012,465.944,426.667,456.532,426.667L456.532,426.667z"/>
	</g>
</g>
<g>
</g>
<g>
</g>
<g>
</g>
<g>
</g>
<g>
</g>
<g>
</g>
<g>
</g>
<g>
</g>
<g>
</g>
<g>
</g>
<g>
</g>
<g>
</g>
<g>
</g>
<g>
</g>
<g>
</g>
</svg>
