<svg height="512pt" viewBox="0 -13 512 511" width="512pt" xmlns="http://www.w3.org/2000/svg"><path d="m38.65625 393.042969h64.085938v53.332031h-64.085938zm0 0" fill="#e0e0e2"/><path d="m26.65625 477.570312h-19.15625v-135.71875h19.15625c4.6875 4.683594 7.316406 7.3125 12 11.996094v111.722656c-4.683594 4.6875-7.3125 7.3125-12 12zm0 0" fill="#79787d"/><path d="m188.417969 419.710938c0 23.65625-19.179688 42.835937-42.839844 42.835937-23.65625 0-42.835937-19.179687-42.835937-42.835937 0-23.660157 19.179687-42.839844 42.835937-42.839844 23.660156 0 42.839844 19.179687 42.839844 42.839844zm0 0" fill="#e0e0e2"/><path d="m176.171875 419.710938c0 8.609374-6.980469 15.589843-15.59375 15.589843-8.609375 0-15.589844-6.980469-15.589844-15.589843 0-8.613282 6.980469-15.59375 15.589844-15.59375 8.613281 0 15.59375 6.980468 15.59375 15.59375zm0 0" fill="#e0e0e2"/><path d="m161.171875 419.710938c0 8.609374-6.980469 15.589843-15.59375 15.589843-8.609375 0-15.589844-6.980469-15.589844-15.589843 0-8.613282 6.980469-15.59375 15.589844-15.59375 8.613281 0 15.59375 6.980468 15.59375 15.59375zm0 0" fill="#79787d"/><path d="m217.757812 241.363281-73.847656 127.90625 46.1875 26.667969 73.855469-127.917969zm0 0" fill="#e0e0e2"/><path d="m477.894531 258.222656 23.859375-41.328125-309.988281-178.917969-50.820313 87.957032 270.375 156.070312zm0 0" fill="#e0e0e2"/><path d="m242.328125 100.695312c0 9.21875-7.476563 16.695313-16.695313 16.695313-9.222656 0-16.699218-7.476563-16.699218-16.695313 0-9.222656 7.476562-16.699218 16.699218-16.699218 9.21875 0 16.695313 7.476562 16.695313 16.699218zm0 0" fill="#acabb1"/><path d="m411.320312 282.003906-270.355468-156.0625-30.796875 53.320313 299.550781 172.898437 50.640625-87.675781zm0 0" fill="#79787d"/><path d="m457.628906 269.207031-27.164062 47.023438c.003906 0 .003906.003906.007812.003906 12.988282 7.5 29.59375 3.046875 37.089844-9.9375 7.5-12.988281 3.050781-29.589844-9.933594-37.089844zm0 0" fill="#bddbff"/><path d="m227.328125 100.695312c0 9.21875-7.472656 16.695313-16.695313 16.695313-9.222656 0-16.699218-7.476563-16.699218-16.695313 0-9.222656 7.476562-16.699218 16.699218-16.699218 9.222657 0 16.695313 7.476562 16.695313 16.699218zm0 0" fill="#ff3f62"/><path d="m38.65625 393.042969h30v53.332031h-30zm0 0" fill="#acabb1"/><path d="m7.5 341.851562h15v135.71875h-15zm0 0" fill="#575759"/><path d="m132.742188 419.710938c0-18.382813 11.578124-34.054688 27.835937-40.132813-4.667969-1.746094-9.71875-2.707031-15-2.707031-23.65625 0-42.835937 19.179687-42.835937 42.839844 0 23.65625 19.179687 42.835937 42.835937 42.835937 5.28125 0 10.332031-.960937 15-2.707031-16.257813-6.078125-27.835937-21.75-27.835937-40.128906zm0 0" fill="#e0e0e2"/><path d="m173.910156 369.269531 66.351563-114.921875-22.503907-12.984375-73.847656 127.90625 46.1875 26.667969 7.5-12.992188zm0 0" fill="#acabb1"/><path d="m170.945312 125.933594 43.316407-74.972656-22.496094-12.984376-50.820313 87.957032 270.375 156.066406 18.53125-6.617188zm0 0" fill="#acabb1"/><path d="m441.320312 282.003906 11.242188-4.015625 7.796875-13.503906-30.507813 10.898437zm0 0" fill="#575759"/><path d="m140.167969 179.261719 23.296875-40.332031-22.496094-12.988282-30.800781 53.320313 299.550781 172.898437 7.5-12.984375zm0 0" fill="#575759"/><path d="m445.472656 316.234375c-.003906 0-.003906-.003906-.007812-.003906l21.757812-37.664063c-2.289062-3.753906-5.519531-7.003906-9.59375-9.359375l-27.164062 47.023438c.003906 0 .003906.003906.007812.003906 6.640625 3.835937 14.226563 4.539063 21.0625 2.578125-2.074218-.597656-4.109375-1.449219-6.0625-2.578125zm0 0" fill="#57a4ff"/><path d="m208.933594 100.695312c0-6.523437 3.746094-12.15625 9.199218-14.90625-2.257812-1.136718-4.800781-1.792968-7.5-1.792968-9.222656 0-16.699218 7.476562-16.699218 16.699218 0 9.21875 7.476562 16.695313 16.699218 16.695313 2.699219 0 5.242188-.65625 7.5-1.792969-5.453124-2.75-9.199218-8.382812-9.199218-14.902344zm0 0" fill="#c70024"/><path d="m0 334.351562v150.71875h29.765625l16.394531-16.394531v-117.933593l-16.394531-16.390626zm31.15625 128.113282-7.605469 7.605468h-8.550781v-120.722656h8.550781l7.605469 7.609375zm0 0"/><path d="m145.578125 396.617188c-12.730469 0-23.089844 10.359374-23.089844 23.09375 0 12.730468 10.359375 23.089843 23.089844 23.089843 12.734375 0 23.09375-10.359375 23.09375-23.089843 0-12.734376-10.359375-23.09375-23.09375-23.09375zm0 31.183593c-4.460937 0-8.089844-3.628906-8.089844-8.089843 0-4.464844 3.628907-8.09375 8.089844-8.09375 4.464844 0 8.09375 3.628906 8.09375 8.09375 0 4.460937-3.628906 8.089843-8.09375 8.089843zm0 0"/><path d="m512 214.148438-208.738281-120.476563 21.402343-37.082031-12.988281-7.5-21.40625 37.082031-9.863281-5.691406 36.773438-63.71875-12.992188-7.5-36.773438 63.71875-78.394531-45.246094-58.324219 100.941406 279.882813 161.558594 33.070313-11.8125-36.675782 63.496094-286.558594-165.402344 17.042969-29.5-12.988281-7.503906-24.546875 42.496093 312.539063 180.394532 21.15625-36.625c14.820312 4.707031 31.988281-1.089844 40.441406-15.730469 7.765625-13.453125 5.457031-30.003906-4.566406-40.859375l13.519531-4.828125zm-50.929688 88.398437c-4.195312 7.261719-12.15625 10.660156-19.617187 9.664063l18.175781-31.46875c4.691406 6.121093 5.53125 14.71875 1.441406 21.804687zm-49.003906-28.773437-260.875-150.585938 43.316406-74.96875 297.003907 171.421875-18.734375 32.449219zm0 0"/><path d="m210.632812 76.496094c-13.34375 0-24.199218 10.855468-24.199218 24.199218 0 13.339844 10.855468 24.195313 24.199218 24.195313 13.339844 0 24.195313-10.855469 24.195313-24.195313 0-13.34375-10.855469-24.199218-24.195313-24.199218zm0 33.394531c-5.074218 0-9.199218-4.125-9.199218-9.195313 0-5.074218 4.125-9.199218 9.199218-9.199218 5.070313 0 9.195313 4.125 9.195313 9.199218 0 5.070313-4.125 9.195313-9.195313 9.195313zm0 0"/><path d="m402.195312 130.777344 12.988282 7.5c27.835937-48.207032 11.292968-109.945313-36.917969-137.777344l-7.5 12.988281c41.03125 23.691407 55.117187 76.257813 31.429687 117.289063zm0 0"/><path d="m376.457031 115.921875 12.988281 7.5c19.636719-34.007813 7.96875-77.550781-26.039062-97.183594l-7.5 12.988281c26.828125 15.488282 36.039062 49.867188 20.550781 76.695313zm0 0"/><path d="m350.71875 101.0625 12.992188 7.496094c11.417968-19.78125 4.617187-45.164063-15.164063-56.585938l-7.5 12.992188c12.617187 7.285156 16.957031 23.476562 9.671875 36.097656zm0 0"/><path d="m247.457031 281.59375-60.101562 104.097656-33.199219-19.164062 60.097656-104.09375-12.988281-7.5-66.785156 115.671875c-10.089844 2.28125-19.039063 7.597656-25.835938 14.9375h-49.988281v15h36.585938v38.332031h-36.585938v15h49.988281c9.203125 9.941406 22.355469 16.171875 36.933594 16.171875 27.757813 0 50.339844-22.582031 50.339844-50.335937 0-5.199219-.792969-10.214844-2.261719-14.933594l66.789062-115.683594zm-101.878906 173.453125c-19.484375 0-35.335937-15.851563-35.335937-35.335937 0-19.484376 15.851562-35.339844 35.335937-35.339844s35.339844 15.855468 35.339844 35.339844c0 19.484374-15.855469 35.335937-35.339844 35.335937zm0 0"/><g fill="#fff"><path d="m470.617188 236.449219-55.402344-31.976563 7.5-12.992187 55.402344 31.976562zm-64.0625-36.976563-12.992188-7.5 7.5-12.992187 12.988281 7.5zm-21.652344-12.496094-12.992188-7.5 7.5-12.992187 12.988282 7.5zm0 0"/><path d="m402.21875 326.417969-39.472656-22.785157 7.496094-12.992187 39.472656 22.789063zm-48.136719-27.785157-12.988281-7.496093 7.496094-12.992188 12.992187 7.5zm-21.648437-12.496093-12.992188-7.5 7.5-12.992188 12.988282 7.5zm0 0"/><path d="m187.441406 365.539062-12.988281-7.5 23.851563-41.3125 12.992187 7.5zm28.855469-49.972656-12.992187-7.5 7.5-12.992187 12.992187 7.5zm12.5-21.652344-12.992187-7.5 7.5-12.988281 12.992187 7.5zm0 0"/></g></svg>